<svg width="128" height="128" viewBox="0 0 128 128" fill="none" xmlns="http://www.w3.org/2000/svg">
<g clip-path="url(#clip0_267_2)">
<rect width="128" height="128" fill="#F8E9FE"/>
<rect x="0.822785" y="0.822785" width="126.354" height="126.354" rx="10.5949" fill="#B623F9"/>
<rect x="0.822785" y="0.822785" width="126.354" height="126.354" rx="10.5949" stroke="#921CC7" stroke-width="2.35443"/>
<path d="M94.9081 49.5307C93.97 41.0951 86.3703 35.0138 77.931 35.9519L46.6743 39.4306C38.2386 40.3687 32.1574 47.9684 33.0955 56.4077C34.0336 64.847 41.637 70.9246 50.0726 69.9865L81.3257 66.5115C89.765 65.5734 95.8426 57.97 94.9045 49.5344L94.9081 49.5307ZM79.9167 61.2917C74.4122 61.9049 69.4516 57.9371 68.8383 52.4326C68.2251 46.9281 72.1929 41.9675 77.6974 41.3542C83.2019 40.741 88.1625 44.7088 88.7758 50.2133C89.389 55.7178 85.4212 60.6784 79.9167 61.2917Z" fill="white"/>
<path d="M90.5065 78.0975C83.5346 87.077 75.0843 91.7931 66.1012 92.1253C58.6621 92.399 50.8616 89.6723 43.2217 83.8795L47.9231 77.696C61.3413 87.8764 74.2813 86.3287 84.3632 73.3413L90.5028 78.0975H90.5065Z" fill="white"/>
</g>
<defs>
<clipPath id="clip0_267_2">
<rect width="128" height="128" fill="white"/>
</clipPath>
</defs>
</svg>
